<?xml version="1.0" encoding="UTF-8"?>
<svg xmlns="http://www.w3.org/2000/svg" xmlns:xlink="http://www.w3.org/1999/xlink" width="535px" height="607px" viewBox="0 0 134 152" version="1.1">
<g id="surface1">
<path style=" stroke:none;fill-rule:evenodd;fill:rgb(0%,0%,0%);fill-opacity:1;" d="M 28.34375 96.949219 C 27.433594 97.011719 26.25 97.417969 25.453125 98.84375 C 24.804688 100.007812 23.28125 100.191406 22.570312 99.957031 C 21.390625 99.566406 19.878906 99.296875 18.414062 100.339844 C 16.949219 101.382812 15.367188 100.59375 15.644531 98.691406 C 15.921875 96.792969 16.609375 95.097656 18.433594 94.050781 C 22.414062 91.761719 19.648438 90.167969 21.835938 87.867188 C 24.023438 85.566406 23.539062 84.859375 23.46875 81.734375 C 16.0625 80.621094 11.871094 78.488281 7.1875 72.640625 C 2.5 66.789062 0.6875 61.972656 0.199219 54.640625 C -0.285156 47.304688 0.132812 42.550781 3.304688 36.464844 C 6.476562 30.375 9.8125 27.445312 15.597656 24.402344 C 21.382812 21.363281 27.050781 20.636719 32.289062 20.726562 C 37.527344 20.8125 41.019531 21.199219 43.976562 22.886719 C 46.9375 24.574219 49.648438 26.699219 51.375 26.714844 C 53.101562 26.726562 54.273438 26.277344 55.113281 25.632812 C 55.335938 31.320312 50.21875 31.8125 45.640625 31.933594 C 41.058594 32.050781 38.242188 30.160156 34.023438 30.863281 C 29.804688 31.570312 22.898438 33.488281 19.539062 39.339844 C 16.171875 45.195312 16.054688 47.265625 16.335938 52.171875 C 16.617188 57.082031 20.84375 60.746094 23.230469 60.785156 C 25.617188 60.824219 26.148438 60.132812 28.234375 58.769531 C 30.328125 57.410156 40.988281 44.214844 44.625 41.253906 C 48.265625 38.289062 51.855469 37.375 55.734375 37.328125 C 59.609375 37.28125 60.601562 37.410156 63.726562 38.691406 C 66.851562 39.972656 68.773438 42.332031 71.296875 43.773438 C 72.585938 43.015625 73.382812 41.882812 74.566406 41.019531 C 78.796875 37.929688 80.992188 37.097656 86.015625 37.585938 C 88.90625 37.867188 92.546875 39.519531 94.722656 41.40625 C 98.59375 44.769531 101.789062 49.453125 104.371094 53.007812 C 106.382812 55.777344 108.75 59.089844 112.128906 60.128906 C 115.820312 61.257812 118.59375 56.484375 119.003906 53.832031 C 119.234375 52.332031 119.535156 51.015625 119.539062 49.363281 C 119.539062 47.710938 119.375 45.707031 118.898438 43.984375 C 118.421875 42.261719 117.601562 40.546875 116.71875 39.125 C 115.28125 36.8125 112.925781 34.394531 110.476562 33.148438 C 109.101562 32.449219 105.867188 31.179688 103.828125 31.136719 C 101.335938 31.082031 99.429688 31.917969 97.121094 32.074219 C 94.328125 32.265625 89.335938 32.894531 87.140625 30.738281 C 85.75 29.363281 85.570312 28.445312 85.335938 26.65625 C 85.949219 27.164062 86.8125 27.496094 87.578125 27.5625 C 89.328125 27.707031 90.96875 26.28125 92.382812 25.453125 C 93.546875 24.769531 95.191406 23.550781 96.71875 22.9375 C 100.648438 21.355469 105.472656 21.398438 109.617188 21.824219 C 112.941406 22.164062 117.25 23.640625 120.164062 25.289062 C 123.09375 26.945312 125.914062 29.738281 127.984375 32.367188 C 130.582031 35.679688 132.003906 38.523438 132.945312 42.652344 C 134.148438 47.925781 134.484375 55.851562 133.027344 61.050781 C 131.882812 65.148438 128.070312 71.445312 124.828125 74.53125 C 121.632812 77.574219 117.941406 79.042969 113.742188 79.847656 C 113.90625 80.695312 113.933594 81.484375 114.148438 82.179688 C 114.460938 83.164062 115.050781 84.265625 116.265625 83.917969 C 116.746094 83.777344 117.007812 83.660156 117.640625 84.214844 C 118.28125 84.773438 117.945312 86.925781 116.15625 87.890625 C 115.246094 88.382812 114.289062 88.488281 112.828125 88.519531 C 111.375 88.546875 109.101562 88.554688 107.519531 88.277344 C 105.9375 88 104.996094 86.746094 103.242188 86.550781 C 100.539062 86.246094 98.46875 84.292969 96.296875 82.898438 C 95.390625 82.3125 95.085938 82.308594 94.566406 82.011719 C 94.847656 82.875 95.222656 83.769531 95.410156 84.601562 C 95.601562 85.429688 95.515625 86.195312 95.617188 86.859375 C 95.71875 87.523438 95.902344 88.039062 96.007812 88.578125 C 96.441406 88.964844 96.578125 89.554688 97.308594 89.738281 C 98.039062 89.925781 99.179688 89.636719 99.921875 89.535156 C 100.667969 89.4375 101.167969 89.03125 101.753906 89.140625 C 102.335938 89.253906 102.890625 89.671875 103.382812 90.0625 C 103.875 90.457031 104.296875 90.511719 104.691406 91.492188 C 105.085938 92.472656 105.453125 94.476562 105.507812 95.816406 C 105.5625 97.15625 105.410156 98.367188 105.015625 99.429688 C 104.617188 100.496094 104.265625 100.964844 103.191406 102.019531 C 102.117188 103.070312 100.363281 104.617188 98.613281 105.695312 C 98.9375 106.171875 99.078125 106.609375 99.578125 107.125 C 100.085938 107.644531 101.128906 108.222656 101.59375 108.769531 C 102.0625 109.3125 102.296875 109.707031 102.304688 110.316406 C 102.3125 110.929688 102.28125 111.722656 101.78125 112.390625 C 100.546875 114.050781 99.082031 114.351562 97.300781 115.132812 C 97.601562 117 97.84375 118.335938 97.414062 120.199219 C 97.234375 120.960938 96.84375 122.683594 95.90625 123.128906 C 94.96875 123.570312 93.15625 123.355469 92.011719 123.539062 C 90.867188 123.71875 90.226562 123.890625 89.332031 124.070312 C 88.789062 124.855469 87.984375 125.71875 87.703125 126.421875 C 87.429688 127.125 87.511719 127.378906 87.742188 128.09375 C 87.976562 128.8125 88.769531 129.855469 88.992188 130.695312 C 89.21875 131.539062 89.261719 132.441406 89.054688 133.285156 C 88.84375 134.128906 88.484375 134.742188 87.765625 135.488281 C 87.046875 136.238281 85.632812 136.824219 84.929688 137.433594 C 84.226562 138.035156 83.523438 138.109375 83.714844 139.113281 C 83.980469 140.492188 85.996094 142.730469 87.453125 143.261719 C 88.328125 143.582031 89.5 143.480469 90.5625 143.035156 C 90.492188 144.210938 89.46875 145.003906 88.804688 145.789062 C 90.609375 145.273438 92.359375 144.285156 93.570312 142.976562 C 93.191406 144.113281 91.898438 145.9375 89.96875 147.539062 C 88.039062 149.140625 88.050781 148.8125 87.089844 149.449219 C 88.84375 149.800781 90.46875 149.707031 91.828125 149.460938 C 91.085938 149.871094 89.867188 150.449219 88.25 150.617188 C 86.632812 150.789062 85.640625 150.667969 84.179688 150.316406 C 82.726562 149.960938 81.398438 148.636719 79.632812 147.726562 C 79.804688 148.378906 79.929688 149.167969 80.671875 149.839844 C 81.414062 150.511719 82.53125 150.855469 83.726562 151.4375 C 82.210938 151.265625 80.609375 151.210938 79.117188 150.882812 C 78.015625 150.640625 77.273438 150.382812 76.460938 149.980469 C 75.65625 149.582031 75.03125 148.996094 74.316406 148.503906 C 74.660156 149.160156 74.761719 149.929688 75.34375 150.46875 C 75.929688 151.011719 76.875 151.210938 77.644531 151.582031 C 76.84375 151.566406 76.074219 151.738281 75.242188 151.53125 C 74.414062 151.320312 73.632812 150.992188 72.773438 150.359375 C 71.910156 149.722656 71.019531 148.9375 70.28125 148.140625 C 69.546875 147.339844 68.636719 146.304688 68.363281 145.566406 C 68.085938 144.828125 68.527344 144.3125 68.609375 143.683594 C 68.101562 144.019531 67.476562 144.203125 67.085938 144.6875 C 66.695312 145.171875 66.351562 145.613281 66.523438 146.460938 C 66.695312 147.300781 67.476562 148.335938 68.027344 149.273438 C 66.382812 147.929688 65.460938 147.410156 65.070312 145.789062 C 64.703125 144.269531 65.652344 142.890625 66.375 141.742188 C 66.730469 141.171875 67.265625 140.640625 67.601562 140.089844 C 66.859375 139.363281 66.007812 138.738281 65.371094 137.910156 C 64.734375 137.082031 64.46875 135.960938 63.816406 135.167969 C 63.164062 134.371094 62.289062 133.871094 61.53125 133.222656 C 62.199219 134.660156 63.300781 136.425781 63.539062 137.539062 C 63.777344 138.648438 63.273438 139.332031 62.875 139.933594 C 62.480469 140.535156 61.84375 140.667969 61.238281 141.035156 C 60.632812 141.40625 59.691406 141.113281 59.332031 141.664062 C 58.96875 142.210938 58.875 143.035156 59.21875 143.578125 L 60.632812 145.808594 C 60.109375 145.546875 59.214844 144.78125 58.8125 144.238281 C 58.40625 143.699219 57.785156 143.195312 57.699219 142.464844 C 57.617188 141.730469 57.574219 141.09375 58.046875 140.441406 C 58.523438 139.789062 59.824219 139.570312 60.40625 139.070312 C 60.988281 138.566406 61.3125 138.242188 61.28125 137.59375 C 61.25 136.945312 60.617188 136.480469 60.070312 136.074219 C 58.40625 134.828125 56.273438 133.675781 54.859375 132.175781 C 54.0625 131.324219 53.679688 130.640625 53.523438 130.054688 C 53.359375 129.46875 53.53125 129.011719 53.925781 128.292969 C 54.320312 127.574219 55.679688 126.609375 55.847656 125.828125 C 56.011719 125.046875 55.328125 124.878906 54.707031 124.601562 C 54.085938 124.324219 52.910156 124.742188 52.335938 124.261719 C 51.761719 123.78125 52.503906 122.773438 51.859375 122.21875 C 51.210938 121.667969 49.726562 121.976562 48.960938 121.378906 C 48.195312 120.785156 47.882812 120.046875 47.617188 119.183594 C 47.351562 118.320312 47.324219 117.375 47.5 116.75 C 47.679688 116.125 48.21875 116.015625 48.539062 115.691406 C 48.867188 115.367188 49.148438 115.097656 48.714844 114.613281 C 48.28125 114.128906 46.867188 114.640625 46.054688 114.019531 C 45.242188 113.398438 45.742188 111.914062 45.167969 111.289062 C 44.59375 110.664062 43.5625 110.90625 43.015625 110.707031 C 42.472656 110.507812 42.257812 111.214844 41.925781 110.097656 C 41.59375 108.980469 41.585938 105.652344 41.132812 104.410156 C 40.6875 103.167969 39.804688 104.324219 39.394531 103.089844 C 38.984375 101.855469 39.375 99.882812 39.1875 98.019531 L 38.351562 92.945312 C 35.4375 94.902344 33.515625 95.515625 30.382812 96.070312 C 30.121094 103.726562 29.402344 108.238281 32 116.734375 C 34.601562 125.230469 39.867188 130.238281 46.96875 137.433594 C 37.597656 130.414062 33.125 124.710938 30.324219 117.40625 C 27.523438 110.097656 28.0625 103.984375 28.34375 96.949219 Z M 78.128906 93.871094 C 78.851562 93.902344 79.726562 94.085938 80.230469 94.414062 C 80.738281 94.742188 81.273438 95.011719 81.734375 95.476562 C 82.882812 96.644531 83.742188 98.054688 84.121094 99.671875 C 84.363281 100.703125 84.398438 102.023438 84.484375 103.234375 C 84.140625 102.117188 83.90625 100.949219 83.414062 99.945312 C 82.632812 98.367188 81.308594 96.824219 79.664062 96.113281 C 79.125 95.878906 78.757812 95.921875 78.460938 95.960938 C 78.59375 96.1875 78.820312 96.375 78.828125 96.703125 C 78.835938 97.03125 78.765625 97.671875 78.207031 97.945312 C 77.3125 98.378906 76.3125 98.074219 75.617188 97.460938 C 74.921875 96.84375 74.679688 95.796875 75.046875 94.898438 C 75.484375 93.828125 77.144531 93.828125 78.128906 93.871094 Z M 69.089844 92.347656 C 69.179688 90.507812 69.84375 88.957031 71.492188 88.054688 C 72.347656 87.589844 73.660156 86.984375 74.867188 86.84375 C 76.027344 86.707031 78.851562 86.808594 80.546875 87.582031 C 81.851562 88.175781 82.734375 89.101562 83.882812 89.777344 C 85.023438 90.457031 85.835938 90.910156 86.929688 91.667969 C 88.601562 92.832031 89.578125 94.113281 90.742188 94.882812 C 91.296875 95.253906 92.082031 95.199219 92.820312 95.421875 C 92.246094 95.59375 91.492188 95.78125 90.875 95.585938 C 90.101562 95.335938 89.015625 94.628906 88.414062 94.121094 C 87.355469 93.226562 86.804688 92.789062 85.648438 92.113281 C 84.953125 91.710938 83.816406 91.238281 83.054688 90.742188 C 82.296875 90.246094 80.976562 89.160156 80.246094 88.789062 C 79.316406 88.324219 77.644531 88.0625 76.609375 88.09375 C 75.1875 88.136719 73.125 88.371094 72.023438 89.371094 C 70.925781 90.363281 70.507812 91.238281 70.757812 92.527344 C 71.171875 92.054688 71.445312 91.457031 71.859375 91.105469 C 72.710938 90.375 73.695312 90.339844 74.761719 90.476562 C 75.957031 90.632812 76.5625 91.324219 76.953125 92.460938 C 76.6875 92.265625 76.203125 91.835938 75.8125 91.703125 C 74.90625 91.390625 74.222656 91.484375 73.375 91.941406 C 72.371094 92.476562 72.644531 93.273438 72.5 94.15625 C 72.433594 94.566406 72.28125 94.894531 72.171875 95.261719 C 71.792969 95.160156 71.445312 95.003906 71.160156 94.722656 C 71.171875 95.136719 71.109375 95.496094 71.195312 95.960938 C 71.28125 96.425781 71.507812 96.980469 71.664062 97.488281 C 70.964844 96.789062 70.25 96.140625 69.796875 95.238281 C 69.347656 94.335938 69.042969 93.339844 69.089844 92.347656 Z M 70.296875 78.960938 C 70.8125 78.195312 70.960938 77.027344 71.28125 76.074219 C 71.15625 77.28125 71.398438 78.605469 70.808594 79.480469 C 70.21875 80.351562 69.1875 80.199219 68.328125 80.453125 C 68.996094 79.945312 69.78125 79.722656 70.296875 78.960938 Z M 57.984375 96.832031 C 58.644531 96.296875 60.425781 96.726562 61.757812 96.820312 C 60.804688 97.066406 59.84375 97.3125 58.882812 97.558594 C 58.796875 97.882812 58.835938 98.257812 58.617188 98.535156 C 58.398438 98.8125 57.984375 98.914062 57.664062 99.105469 C 57.695312 98.25 57.324219 97.367188 57.984375 96.832031 Z M 67.375 59.714844 C 68.171875 60.140625 69.183594 60.707031 69.882812 60.726562 C 70.585938 60.742188 70.773438 60.265625 71.1875 59.992188 C 71.835938 62.109375 72.582031 64.441406 73.6875 66.363281 C 74.15625 67.171875 74.449219 66.796875 74.804688 67.605469 C 75.15625 68.414062 75.3125 70.0625 75.648438 71.097656 C 75.980469 72.132812 76.414062 72.894531 76.804688 73.792969 C 75.820312 72.40625 74.558594 70.636719 74.011719 69.480469 C 73.46875 68.328125 73.816406 68.226562 73.375 67.128906 C 72.933594 66.03125 72.039062 64.316406 71.375 62.910156 C 70.898438 62.976562 70.304688 63.0625 69.941406 62.949219 C 69.578125 62.835938 69.652344 62.453125 69.324219 62.203125 C 68.996094 61.953125 68.445312 62.050781 67.984375 61.652344 C 67.523438 61.253906 67.417969 60.4375 67.375 59.714844 Z M 63.09375 70.175781 C 63.84375 70.109375 64.773438 70.308594 65.472656 70.269531 C 66.171875 70.230469 66.671875 70.046875 67.273438 69.9375 C 67.164062 68.878906 67.269531 66.941406 66.296875 66.238281 C 65.664062 65.78125 63.078125 66.125 62.386719 66.273438 C 60.832031 66.609375 59.023438 67.535156 57.515625 68.113281 C 58.960938 67.109375 60.203125 66.175781 61.929688 65.65625 C 62.96875 65.34375 65.398438 64.941406 66.46875 65.230469 C 66.957031 65.359375 67.054688 65.5625 67.351562 65.980469 C 68.375 67.402344 68.371094 68.632812 68.636719 70.292969 C 68.898438 70.699219 69.171875 70.96875 69.382812 71.386719 C 69.59375 71.804688 69.714844 72.464844 69.773438 73 C 69.507812 72.613281 69.671875 72.128906 68.929688 71.839844 C 68.1875 71.550781 67.054688 71.820312 66.058594 71.925781 C 66.785156 72.449219 67.148438 72.957031 67.171875 74.0625 C 67.207031 75.367188 66.105469 76.300781 64.953125 76.390625 C 63.355469 76.515625 62.53125 76.164062 61.882812 74.800781 C 61.601562 74.203125 61.804688 73.480469 61.78125 72.898438 C 59.863281 73.03125 59.894531 72.96875 58.492188 74.140625 C 59.253906 75.257812 59.734375 75.898438 60.992188 76.566406 C 61.703125 76.941406 62.5 77.304688 63.378906 77.457031 C 64.257812 77.605469 65.691406 77.75 66.613281 77.605469 C 67.53125 77.464844 68.054688 77.203125 68.738281 76.570312 C 69.421875 75.941406 69.484375 75.039062 69.75 74.324219 C 69.6875 75.011719 69.609375 75.886719 69.355469 76.382812 C 68.578125 77.902344 67.234375 78.351562 65.632812 78.355469 C 64.09375 78.359375 62.1875 78.003906 60.757812 77.410156 C 59.609375 76.9375 57.710938 75.59375 57.261719 74.429688 C 56.953125 73.628906 57.195312 72.652344 57.164062 71.765625 C 58.75 70.710938 59.140625 70.96875 61.019531 70.660156 C 61.804688 70.53125 62.34375 70.238281 63.09375 70.175781 Z M 53.859375 63.035156 C 53.902344 62.40625 53.972656 62.417969 54.03125 62.109375 C 52.585938 61.722656 52.007812 62.660156 51.15625 64.398438 C 50.84375 65.050781 51.15625 65.4375 50.816406 65.867188 C 50.476562 66.296875 49.929688 66.234375 49.375 66.648438 C 48.828125 67.058594 48.28125 67.84375 47.765625 68.269531 C 46.703125 69.144531 45.273438 69.679688 44.046875 70.265625 C 44.886719 69.648438 46.515625 68.710938 47.039062 67.8125 C 47.320312 67.335938 47.277344 66.441406 47.710938 66.011719 C 48.144531 65.585938 48.296875 65.289062 48.859375 65.179688 C 49.421875 65.070312 49.195312 64.421875 49.375 63.902344 C 49.554688 63.386719 49.914062 63.019531 50.296875 62.503906 C 50.679688 61.988281 51.164062 61.214844 51.921875 60.933594 C 52.679688 60.652344 53.859375 60.953125 54.433594 60.792969 C 55.007812 60.632812 54.675781 60.214844 55.09375 59.964844 C 55.507812 59.714844 56.320312 59.824219 56.875 59.558594 C 57.859375 59.082031 58.335938 58.292969 58.929688 57.445312 C 59.015625 59.269531 58.992188 60.582031 58.335938 62.296875 C 57.597656 64.230469 56.851562 65.367188 54.753906 66.554688 C 54.03125 66.964844 53.3125 67.105469 52.714844 67.320312 C 53.0625 66.84375 53.5625 66.636719 53.761719 65.894531 C 53.960938 65.148438 53.8125 63.667969 53.859375 63.035156 Z M 87.6875 71.929688 C 86.695312 71.992188 86.457031 71.863281 85.660156 72.425781 C 86.09375 73.097656 86.523438 73.769531 86.953125 74.441406 C 86.917969 73.113281 87.046875 72.847656 87.6875 71.929688 Z M 85.078125 70.964844 C 86.460938 70.375 87.664062 69.902344 89.164062 69.808594 C 89.765625 69.769531 90.699219 69.863281 91.304688 69.890625 C 91.824219 69.128906 92.484375 68.527344 92.726562 67.65625 C 92.886719 67.082031 92.804688 64.40625 92.523438 63.710938 C 91.695312 61.6875 90.898438 61.601562 89.757812 60.441406 C 88.9375 59.601562 88.902344 58.324219 88.65625 56.890625 C 88.5625 56.363281 88.304688 55.699219 88.1875 55.152344 C 86.699219 54.902344 85.101562 54.820312 83.394531 54.90625 C 84.222656 54.113281 85.023438 53.386719 85.261719 52.195312 C 85.5 51 85.304688 49.535156 84.625 48.464844 C 83.949219 47.398438 82.867188 46.464844 81.871094 45.59375 C 80.875 44.722656 79.453125 44.003906 78.507812 43.289062 C 79.734375 42.851562 80.984375 42.207031 82.1875 41.972656 C 85.3125 41.367188 88.007812 42.296875 91.027344 44.117188 C 92.78125 45.179688 94.234375 46.1875 96.066406 48.105469 C 97.898438 50.023438 100.171875 53.542969 101.949219 55.632812 C 103.726562 57.71875 105.15625 59.371094 106.703125 60.613281 C 108.253906 61.859375 109.65625 62.214844 111.132812 63.015625 L 113.429688 65.457031 L 115.289062 63.152344 L 118.285156 63.492188 L 118.902344 60.132812 L 121.648438 59.378906 L 121.203125 54.851562 L 123.179688 53.453125 L 121.695312 50.632812 L 123.203125 47.554688 L 121.234375 44.035156 L 121.992188 40.648438 L 119.71875 38.710938 L 119.421875 35.109375 L 116.242188 33.898438 L 114.96875 30.765625 L 111.398438 30.726562 L 109.648438 28.402344 L 107.242188 28.570312 L 104.5625 28.277344 L 103.046875 27.160156 L 100.847656 28.617188 L 98.1875 27.230469 L 92.894531 29.238281 L 96.34375 26.238281 L 99.914062 25.667969 L 102.65625 24.972656 L 106.351562 26.1875 L 109.605469 25.363281 L 112.742188 27.214844 L 116.0625 27.03125 L 117.695312 29.957031 L 121 30.339844 L 122.789062 33.589844 L 124.867188 34.726562 L 125.421875 38.894531 L 127.273438 40.648438 L 126.457031 44.292969 L 128.640625 47.054688 L 126.59375 50.011719 L 128.78125 51.859375 L 125.984375 54.339844 L 128.816406 57.285156 L 125.398438 58.386719 L 127.625 61.550781 L 124.828125 62.03125 L 126.664062 65.507812 L 123.515625 65.46875 L 125.101562 68.070312 L 121.648438 67.65625 L 122.472656 71.402344 L 119.863281 69.105469 L 118.96875 73.648438 L 117.167969 70.386719 L 116.195312 74.453125 L 113.96875 71.453125 L 114.03125 75.71875 L 111.574219 71.886719 C 112.09375 74.058594 111.988281 76.441406 113.417969 78.492188 C 117.84375 77.894531 120.742188 76.777344 124.132812 73.515625 C 127.222656 70.542969 130.914062 64.347656 131.914062 60.414062 C 133.058594 55.929688 133.09375 47.679688 131.96875 43.113281 C 130.886719 38.71875 129.480469 36.617188 126.96875 33.03125 C 124.570312 30.480469 122.207031 27.789062 119.15625 25.96875 C 114.6875 23.300781 108.949219 22.582031 103.851562 22.652344 C 101.027344 22.691406 99.136719 23.230469 97.445312 23.84375 C 94.496094 24.917969 92.136719 27.257812 89.132812 28.414062 C 88.15625 28.792969 87.375 28.804688 86.601562 28.394531 C 87.355469 29.902344 88.179688 30.578125 90.058594 31.128906 C 91.421875 31.527344 94.671875 31.273438 96.90625 31.070312 C 99.304688 30.847656 100.558594 30.132812 103.828125 30.179688 C 107.015625 30.222656 109.546875 31.433594 110.929688 32.222656 C 113.78125 33.851562 115.828125 35.660156 117.601562 38.527344 C 118.578125 40.101562 119.261719 41.875 119.742188 43.6875 C 120.226562 45.496094 120.4375 47.527344 120.46875 49.300781 C 120.5 51.074219 120.363281 52.65625 119.929688 54.25 C 118.914062 57.988281 116.671875 61.789062 112.078125 61.203125 C 109.257812 60.84375 105.015625 55.5625 103.59375 53.625 C 100.726562 49.714844 97.78125 45.386719 94.175781 42.132812 C 91.976562 40.148438 88.96875 38.78125 86.015625 38.511719 C 80.476562 38.003906 78.832031 39.058594 74.664062 42.492188 C 75.507812 42.761719 76.335938 42.910156 77.210938 43.304688 C 79.140625 44.171875 80.90625 45.296875 82.445312 46.738281 C 84.054688 48.25 84.78125 49.203125 84.835938 51.367188 C 84.875 52.800781 83.695312 53.953125 82.609375 54.988281 C 81.945312 55.625 81.070312 56.207031 80.53125 56.699219 C 79.820312 57.351562 78.9375 58.066406 79.835938 59.105469 C 80.171875 59.496094 80.753906 59.792969 81.246094 60.15625 C 82.027344 60.738281 81.671875 62.890625 80.640625 63.464844 C 79.320312 64.195312 77.75 64.113281 76.664062 63.136719 C 78.03125 62.929688 78.90625 62.746094 78.867188 61.625 C 78.847656 60.976562 78.023438 60.4375 77.210938 60.066406 C 75.253906 59.175781 73.777344 59.304688 71.828125 57.90625 C 69.863281 56.492188 69.820312 55.71875 69.289062 53.496094 C 68.339844 53.59375 67.46875 53.617188 66.195312 54.035156 C 64.929688 54.457031 63.53125 55.453125 62.375 55.703125 C 59.476562 56.324219 58.898438 56.140625 57.3125 55.730469 C 54.519531 55.007812 50.882812 56.246094 47.269531 57.398438 C 46.671875 57.59375 44.238281 57.40625 42.601562 57.980469 C 40.078125 58.863281 36.53125 61.011719 34.484375 62.734375 C 31.382812 65.347656 27.304688 73.164062 25 82.132812 C 24.757812 84.859375 25.535156 86.699219 23.816406 88.03125 C 22.097656 89.363281 22.148438 92.777344 21.5625 93.730469 C 20.980469 94.6875 20.304688 94.265625 19.050781 95.609375 C 17.796875 96.953125 17.15625 96.730469 17.1875 99.269531 C 18.273438 98.5625 19.847656 97.734375 21.230469 97.683594 C 22.457031 97.640625 22.46875 99.253906 25.617188 96.144531 C 27.296875 94.480469 30.53125 94.429688 32.773438 93.695312 C 35.015625 92.964844 39.054688 91.453125 43.105469 86.929688 C 47.152344 82.40625 49.089844 77.644531 49.875 70.757812 C 50 71.980469 50.21875 73.355469 49.695312 76.722656 C 49.171875 80.089844 48.042969 83.875 50.417969 88.402344 L 51.898438 91.226562 C 51.015625 90.023438 49.296875 88.0625 48.78125 86.667969 L 47.585938 83.445312 C 44.914062 87.640625 44.296875 88.390625 40.585938 91.394531 C 40.4375 93.261719 40.398438 95.203125 41.007812 96.988281 C 41.617188 98.769531 40.648438 100.828125 41.109375 102.003906 C 41.578125 103.175781 42.648438 102.507812 43 103.695312 C 43.347656 104.886719 42.8125 107.238281 43.359375 108.398438 C 43.902344 109.558594 45.234375 108.851562 45.882812 109.226562 C 46.523438 109.601562 46.734375 110.117188 47.082031 110.609375 C 47.429688 111.101562 46.945312 112.261719 47.648438 112.640625 C 48.351562 113.019531 49.445312 112.699219 50.179688 113.0625 C 50.910156 113.425781 51.023438 114.296875 50.84375 115.078125 C 50.671875 115.859375 49.890625 116.21875 49.546875 117.015625 C 49.203125 117.808594 49.242188 118.363281 49.65625 119.09375 C 50.066406 119.824219 50.976562 120.222656 51.886719 120.589844 C 52.796875 120.960938 54.070312 120.753906 55.011719 121.261719 C 55.949219 121.773438 56.789062 122.789062 57.289062 123.527344 C 57.78125 124.261719 57.921875 124.785156 57.894531 125.558594 C 57.867188 126.335938 57.554688 127.226562 57.140625 127.976562 C 56.726562 128.726562 55.8125 129.636719 57.238281 131.066406 C 58.664062 132.496094 58.613281 131.882812 59.429688 132.808594 C 59.34375 131.203125 58.679688 129.894531 59.164062 128.691406 C 59.648438 127.480469 61.105469 127.269531 61.875 126.726562 C 62.640625 126.183594 63.085938 125.4375 63.6875 124.792969 C 63.679688 125.621094 63.769531 126.515625 63.671875 127.140625 C 63.484375 128.410156 63.109375 129.539062 65 129.742188 C 65.855469 129.832031 66.664062 129.28125 67.5625 128.949219 C 67.09375 129.789062 66.273438 130.46875 66.152344 131.476562 C 66.03125 132.484375 66.175781 133.589844 66.875 134.589844 C 67.570312 135.589844 68.78125 136.332031 69.664062 136.921875 C 70.546875 137.507812 71.015625 137.554688 71.695312 137.871094 C 71.730469 138.863281 71.535156 139.910156 71.648438 140.84375 C 71.761719 141.777344 72.054688 142.601562 72.59375 143.375 C 73.132812 144.148438 74 144.589844 74.816406 145.160156 C 74.367188 144.117188 73.460938 143.128906 73.476562 142.035156 C 73.484375 140.941406 73.8125 140.164062 74.882812 139.195312 C 75.953125 138.222656 78.453125 137.382812 79.628906 136.4375 C 80.808594 135.492188 81.1875 134.914062 81.609375 134 C 82.035156 133.082031 81.917969 131.605469 81.996094 130.78125 C 82.382812 131.933594 82.4375 132.292969 82.5625 133.5 C 82.691406 134.710938 81.859375 136.40625 81.507812 137.300781 C 82.96875 136.59375 83.890625 135.46875 84.359375 134.371094 C 84.671875 134.554688 84.515625 135.0625 84.632812 136.042969 C 85.148438 135.527344 85.742188 135.128906 86.265625 134.640625 C 86.789062 134.152344 87.359375 133.722656 87.621094 133.042969 C 87.878906 132.363281 87.773438 131.640625 87.578125 130.847656 C 87.386719 130.058594 86.503906 129.140625 86.027344 128.277344 C 85.550781 127.414062 86.109375 126.5625 86.078125 125.523438 C 85.125 125.359375 84.320312 124.875 83.222656 125.03125 C 82.128906 125.1875 80.875 126.417969 79.757812 126.429688 C 78.636719 126.445312 78.007812 125.398438 77.089844 125.109375 C 76.171875 124.820312 75.242188 124.851562 74.320312 124.722656 C 75.492188 123.605469 80.023438 123.070312 83.125 122.566406 C 85.859375 122.121094 88.566406 121.863281 91.332031 121.824219 C 92.566406 121.808594 94.15625 122.214844 95.011719 121.96875 C 95.871094 121.722656 95.6875 121.136719 95.941406 120.5 C 96.65625 118.722656 96.304688 117.136719 95.914062 115.34375 C 93.433594 115.054688 90.84375 114.695312 88.34375 114.890625 C 85.898438 115.078125 83 116.238281 80.476562 116.316406 C 78.285156 116.386719 75.039062 115.898438 73.15625 114.75 C 70.851562 113.347656 69.070312 110.335938 68.441406 109.371094 C 67.414062 107.796875 66.113281 104.703125 65.320312 103.292969 C 64.53125 101.882812 64.359375 101.484375 63.703125 100.894531 C 63.046875 100.304688 62.144531 100.261719 61.367188 99.941406 C 62.265625 100.035156 63.242188 99.75 64.058594 100.21875 C 65.28125 100.921875 66.65625 103.832031 67.414062 105.097656 C 68.226562 102.394531 68.035156 101.328125 70.371094 99.804688 C 68.488281 101.914062 68.441406 103.511719 67.984375 105.992188 C 69.546875 108.5625 71.726562 112.65625 74.574219 113.789062 C 75.601562 114.199219 77.371094 114.457031 78.484375 114.597656 C 81.945312 115.023438 85.28125 113.925781 88.683594 113.089844 C 91.171875 112.472656 93.691406 112.722656 96.714844 112.898438 C 97.742188 112.960938 100.160156 112.34375 100.664062 111.304688 C 100.929688 110.746094 100.914062 110.074219 100.523438 109.476562 C 100.132812 108.878906 99.097656 108.59375 98.542969 108.054688 C 97.984375 107.519531 97.667969 106.878906 97.230469 106.292969 C 94.921875 106.734375 93.023438 106.90625 91.308594 106.953125 C 92.539062 106.445312 93.71875 106.15625 94.996094 105.65625 C 96.273438 105.15625 97.726562 104.335938 98.761719 103.65625 C 99.792969 102.972656 100.453125 102.578125 101.199219 101.785156 C 101.945312 100.992188 102.90625 100.175781 103.453125 99.207031 C 104.007812 98.234375 104.089844 97.152344 104.121094 95.949219 C 104.152344 94.75 104.101562 93.070312 103.636719 92.101562 C 103.171875 91.136719 102.28125 90.84375 101.566406 90.613281 C 100.851562 90.382812 100.359375 90.964844 99.613281 91.042969 C 98.867188 91.121094 98.171875 91.589844 97.09375 91.082031 C 96.015625 90.574219 94.734375 89.542969 93.644531 88.011719 C 92.554688 86.480469 91.773438 83.976562 90.664062 82.050781 C 88.75 78.730469 86.363281 75.632812 84.078125 72.554688 C 83.890625 71.796875 83.609375 70.746094 83.515625 69.71875 C 83.351562 67.925781 83.320312 66.0625 83.875 64.316406 C 84.304688 62.976562 84.925781 61.5625 86.328125 61.011719 C 86.890625 60.792969 87.601562 60.703125 88.101562 60.890625 C 88.601562 61.074219 89.09375 61.640625 88.898438 62.296875 C 88.679688 63.015625 88.183594 63.035156 87.84375 63.398438 C 87.269531 64.015625 87.039062 64.46875 86.820312 65.234375 C 87.445312 65.226562 88.28125 65.179688 88.792969 65.3125 C 89.460938 65.488281 90.078125 65.929688 90.417969 66.871094 C 89.625 66.167969 89.226562 65.84375 88.234375 65.820312 C 87.78125 65.808594 87.226562 65.96875 86.726562 66.046875 C 86.539062 66.65625 86.429688 67.40625 86.164062 67.878906 C 85.898438 68.351562 85.382812 68.238281 85.1875 68.789062 C 84.992188 69.339844 84.984375 70.238281 85.078125 70.964844 Z M 92.023438 70.136719 C 92.328125 70.257812 92.445312 70.28125 92.828125 70.574219 C 93.214844 70.867188 93.746094 71.160156 94.054688 71.863281 C 94.359375 72.5625 94.34375 73.648438 94.28125 74.089844 C 94.007812 74.011719 93.644531 74.0625 93.367188 73.828125 C 93.089844 73.589844 92.921875 73.050781 92.570312 72.820312 C 92.210938 72.589844 91.914062 72.640625 91.523438 72.589844 C 91.722656 73.164062 91.820312 73.742188 91.726562 74.261719 C 91.523438 75.402344 90.851562 75.976562 89.769531 76.113281 C 89.296875 76.171875 88.546875 76.015625 88.132812 75.941406 C 88.324219 76.367188 88.648438 76.738281 88.839844 77.167969 C 89.757812 77.035156 90.4375 77.050781 90.929688 76.820312 C 91.421875 76.589844 91.949219 76.074219 92.582031 75.859375 C 93.210938 75.640625 93.777344 75.644531 94.46875 75.535156 C 93.925781 76.003906 93.566406 76.472656 93.023438 76.941406 C 93.421875 78.101562 93.820312 79.261719 94.21875 80.425781 C 95.066406 80.953125 95.859375 81.234375 96.929688 81.886719 C 97.996094 82.539062 99.273438 83.710938 100.664062 84.347656 C 102.054688 84.984375 102.882812 85.332031 104.335938 85.605469 C 105.785156 85.878906 106.941406 87.054688 108.367188 87.246094 C 109.796875 87.4375 112.46875 87.476562 113.570312 87.367188 C 114.820312 87.246094 116.445312 86.601562 116.589844 85.230469 C 115.539062 85.488281 113.9375 85.257812 113.132812 83.285156 C 112.773438 82.410156 112.949219 80.800781 112.398438 79.765625 C 111.851562 78.730469 111.085938 78.398438 110.171875 77.121094 C 109.257812 75.847656 107.757812 73.835938 106.921875 72.125 C 106.078125 70.414062 105.882812 68.480469 105.171875 66.949219 C 104.460938 65.417969 103.390625 64.179688 102.5625 63 C 100.75 60.421875 99.289062 58.65625 96.304688 57.359375 C 94.867188 56.730469 93.230469 56.566406 91.695312 56.167969 C 91.070312 56.449219 90.210938 56.757812 90.0625 57.488281 C 89.910156 58.21875 90.203125 59.296875 90.734375 59.84375 C 91.617188 60.761719 92.9375 61.753906 93.453125 63.210938 C 93.785156 64.144531 93.882812 67.277344 93.59375 68.128906 C 93.296875 69.011719 92.601562 69.546875 92.023438 70.136719 Z M 92.3125 77.554688 C 92.035156 77.796875 91.824219 78.039062 91.375 78.238281 C 90.929688 78.4375 90.320312 78.488281 89.730469 78.636719 C 90.5625 79.929688 91.429688 81.234375 92.226562 82.589844 C 93.023438 83.945312 93.710938 85.429688 94.46875 86.851562 C 94.433594 86.039062 94.484375 85.167969 94.363281 84.410156 C 94.242188 83.648438 93.898438 82.984375 93.558594 81.839844 C 93.21875 80.699219 92.796875 79.144531 92.3125 77.554688 Z M 69.992188 49.175781 C 69.875 50.445312 70.089844 52.429688 70.351562 53.675781 C 70.667969 55.164062 70.972656 55.933594 72.179688 56.832031 C 74.390625 58.472656 75.804688 58.195312 77.507812 59.148438 C 78.316406 59.601562 79.34375 60.359375 79.640625 61.160156 C 79.941406 61.964844 79.445312 62.835938 78.828125 63.179688 C 79.90625 63.339844 81.109375 62.128906 80.605469 60.886719 C 80.359375 60.273438 79.179688 60 78.820312 59.382812 C 78.460938 58.765625 78.460938 58.132812 78.628906 57.507812 C 78.9375 56.378906 81.171875 55.351562 81.960938 54.457031 C 83.179688 53.082031 83.644531 51.933594 82.953125 50.164062 C 81.988281 47.679688 78.253906 45.6875 76.015625 44.710938 C 74.992188 44.261719 74.421875 44.230469 73.621094 43.992188 C 75.257812 44.949219 76.980469 45.714844 77.804688 47.855469 C 78.5 49.640625 77.898438 50.3125 77.921875 51.871094 C 77.933594 52.59375 78.882812 52.953125 79.304688 53.410156 C 79.671875 53.808594 79.644531 54.101562 79.351562 54.648438 C 79.320312 54.15625 79.109375 53.785156 78.726562 53.519531 C 78.101562 53.074219 77.429688 53.171875 77.09375 52.261719 C 76.585938 50.878906 77.59375 49.566406 76.460938 48.019531 C 75.617188 46.855469 74.496094 45.554688 72.984375 45.523438 C 72.265625 45.503906 71.726562 45.613281 70.960938 45.839844 L 69.9375 44.613281 L 69.914062 44.597656 C 67.839844 42.703125 66.421875 41.140625 63.507812 39.839844 C 60.59375 38.539062 59.160156 38.339844 55.820312 38.414062 C 52.480469 38.488281 49.164062 38.769531 45.296875 42.101562 C 41.429688 45.4375 31.460938 58.203125 29.046875 59.816406 C 26.628906 61.433594 26.09375 61.980469 23.070312 61.984375 C 20.050781 61.984375 15.335938 57.714844 15.152344 52.375 C 14.96875 47.039062 14.894531 45.140625 18.605469 38.710938 C 22.320312 32.28125 29.039062 30.308594 34.03125 29.640625 C 39.023438 28.972656 42.019531 30.730469 45.710938 30.738281 C 49.398438 30.746094 53.046875 30.109375 54.125 27.175781 C 53.597656 27.488281 52.890625 27.84375 50.90625 27.738281 C 48.925781 27.636719 46.175781 25.339844 43.082031 23.800781 C 39.988281 22.265625 36.546875 22.085938 32.132812 22 C 27.714844 21.917969 22.203125 22.253906 16.75 25.199219 C 11.289062 28.144531 7.5625 31.269531 4.398438 37.035156 C 1.234375 42.800781 0.757812 47.507812 1.269531 54.484375 C 1.78125 61.464844 3.933594 66.65625 8.078125 71.765625 C 12.226562 76.871094 16.371094 79.371094 23.84375 80.300781 L 25.414062 73.367188 L 22.609375 77.394531 L 22.679688 72.914062 L 20.136719 76.0625 L 19.023438 71.792969 L 16.964844 75.21875 L 15.945312 70.445312 L 12.960938 72.859375 L 13.90625 68.921875 L 9.960938 69.359375 L 11.773438 66.621094 L 8.171875 66.667969 L 10.265625 63.011719 L 7.074219 62.507812 L 9.617188 59.183594 L 5.710938 58.027344 L 8.945312 54.929688 L 5.75 52.324219 L 8.25 50.382812 L 5.914062 47.273438 L 8.40625 44.375 L 7.476562 40.542969 L 9.59375 38.699219 L 10.226562 34.320312 L 12.601562 33.128906 L 14.640625 29.710938 L 18.421875 29.308594 L 20.285156 26.234375 L 24.078125 26.429688 L 27.664062 24.480469 L 31.382812 25.347656 L 35.609375 24.070312 L 38.734375 24.804688 L 42.820312 25.402344 L 46.761719 28.554688 L 40.714844 26.445312 L 37.671875 27.902344 L 35.160156 26.367188 L 33.429688 27.542969 L 30.367188 27.851562 L 27.617188 27.671875 L 25.617188 30.117188 L 21.535156 30.160156 L 20.078125 33.449219 L 16.449219 34.722656 L 16.109375 38.507812 L 13.507812 40.542969 L 14.375 44.105469 L 12.125 47.800781 L 13.851562 51.035156 L 12.15625 53.996094 L 14.414062 55.46875 L 13.898438 60.226562 L 17.039062 61.015625 L 17.746094 64.546875 L 21.167969 64.191406 L 23.296875 66.609375 L 25.921875 64.046875 C 30.710938 61.65625 32.683594 60.320312 36.414062 56.289062 C 40.664062 51.691406 43.101562 47.449219 48.757812 44.300781 C 52.820312 42.046875 56.128906 41.234375 60.6875 42.019531 C 64.96875 42.761719 66.40625 45.328125 69.554688 48.03125 C 69.890625 47.425781 69.960938 47.265625 70.507812 46.820312 C 70.335938 47.605469 70.0625 48.421875 69.992188 49.175781 Z M 69.992188 49.175781 "/>
</g>
</svg>
