<?xml version="1.0" encoding="UTF-8"?>
<svg xmlns="http://www.w3.org/2000/svg" xmlns:xlink="http://www.w3.org/1999/xlink" width="268px" height="304px" viewBox="0 0 268 304" version="1.1">
<g id="surface1">
<path style=" stroke:none;fill-rule:evenodd;fill:rgb(0%,0%,0%);fill-opacity:1;" d="M 56.6875 193.90625 C 54.867188 194.03125 52.496094 194.847656 50.90625 197.695312 C 49.605469 200.023438 46.566406 200.394531 45.144531 199.925781 C 42.78125 199.144531 39.757812 198.601562 36.828125 200.691406 C 33.898438 202.777344 30.734375 201.199219 31.289062 197.394531 C 31.84375 193.59375 33.21875 190.207031 36.867188 188.109375 C 44.832031 183.527344 39.296875 180.339844 43.667969 175.742188 C 48.046875 171.136719 47.078125 169.726562 46.933594 163.46875 C 32.128906 161.246094 23.742188 156.980469 14.371094 145.277344 C 5.003906 133.574219 1.371094 123.941406 0.398438 109.269531 C -0.570312 94.597656 0.269531 85.085938 6.609375 72.910156 C 12.953125 60.730469 19.628906 54.867188 31.195312 48.785156 C 42.765625 42.703125 54.101562 41.25 64.578125 41.425781 C 75.054688 41.601562 82.039062 42.371094 87.957031 45.746094 C 93.878906 49.125 99.292969 53.375 102.746094 53.40625 C 106.199219 53.433594 108.550781 52.53125 110.226562 51.246094 C 110.675781 62.617188 100.4375 63.605469 91.277344 63.847656 C 82.117188 64.085938 76.488281 60.300781 68.050781 61.707031 C 59.613281 63.117188 45.800781 66.957031 39.074219 78.664062 C 32.34375 90.375 32.113281 94.515625 32.671875 104.335938 C 33.234375 114.15625 41.6875 121.484375 46.460938 121.5625 C 51.230469 121.640625 52.296875 120.261719 56.472656 117.535156 C 60.652344 114.8125 81.976562 88.417969 89.253906 82.492188 C 96.53125 76.5625 103.710938 74.730469 111.464844 74.636719 C 119.21875 74.542969 121.199219 74.804688 127.453125 77.367188 C 133.707031 79.929688 137.550781 84.648438 142.59375 87.53125 C 145.167969 86.015625 146.769531 83.75 149.132812 82.023438 C 157.589844 75.84375 161.984375 74.179688 172.035156 75.15625 C 177.8125 75.71875 185.097656 79.019531 189.445312 82.796875 C 197.183594 89.523438 203.578125 98.890625 208.742188 106.003906 C 212.765625 111.546875 217.5 118.175781 224.257812 120.25 C 231.640625 122.511719 237.191406 112.957031 238.007812 107.65625 C 238.46875 104.652344 239.070312 102.019531 239.078125 98.714844 C 239.082031 95.410156 238.746094 91.398438 237.792969 87.953125 C 236.839844 84.507812 235.207031 81.078125 233.4375 78.234375 C 230.5625 73.609375 225.851562 68.769531 220.957031 66.277344 C 218.207031 64.878906 211.738281 62.335938 207.660156 62.25 C 202.667969 62.140625 198.859375 63.816406 194.242188 64.132812 C 188.652344 64.515625 178.667969 65.769531 174.285156 61.453125 C 171.496094 58.703125 171.144531 56.871094 170.667969 53.289062 C 171.898438 54.304688 173.625 54.972656 175.15625 55.101562 C 178.65625 55.394531 181.933594 52.539062 184.761719 50.882812 C 187.089844 49.519531 190.382812 47.082031 193.441406 45.847656 C 201.296875 42.683594 210.945312 42.773438 219.238281 43.621094 C 225.882812 44.300781 234.5 47.257812 240.328125 50.554688 C 246.1875 53.867188 251.832031 59.453125 255.964844 64.71875 C 261.164062 71.34375 264.007812 77.027344 265.890625 85.289062 C 268.300781 95.839844 268.964844 111.691406 266.054688 122.097656 C 263.761719 130.292969 256.144531 142.886719 249.660156 149.0625 C 243.265625 155.152344 235.882812 158.089844 227.484375 159.699219 C 227.8125 161.390625 227.867188 162.972656 228.300781 164.363281 C 228.917969 166.332031 230.101562 168.53125 232.527344 167.835938 C 233.492188 167.558594 234.011719 167.320312 235.285156 168.433594 C 236.558594 169.550781 235.894531 173.859375 232.308594 175.789062 C 230.492188 176.769531 228.574219 176.984375 225.660156 177.042969 C 222.746094 177.101562 218.203125 177.113281 215.039062 176.558594 C 211.878906 176.007812 209.992188 173.496094 206.488281 173.105469 C 201.078125 172.5 196.933594 168.589844 192.597656 165.796875 C 190.785156 164.628906 190.175781 164.617188 189.132812 164.027344 C 189.695312 165.753906 190.445312 167.542969 190.820312 169.203125 C 191.199219 170.863281 191.035156 172.398438 191.238281 173.726562 C 191.433594 175.054688 191.804688 176.085938 192.019531 177.160156 C 192.882812 177.933594 193.160156 179.113281 194.617188 179.484375 C 196.074219 179.855469 198.355469 179.277344 199.847656 179.078125 C 201.335938 178.878906 202.335938 178.066406 203.507812 178.289062 C 204.675781 178.511719 205.785156 179.347656 206.765625 180.132812 C 207.746094 180.917969 208.589844 181.03125 209.382812 182.992188 C 210.175781 184.949219 210.90625 188.960938 211.015625 191.640625 C 211.121094 194.324219 210.820312 196.742188 210.027344 198.871094 C 209.234375 201 208.535156 201.941406 206.382812 204.050781 C 204.230469 206.15625 200.726562 209.25 197.226562 211.402344 C 197.871094 212.355469 198.15625 213.230469 199.160156 214.265625 C 200.167969 215.300781 202.257812 216.460938 203.191406 217.550781 C 204.121094 218.640625 204.59375 219.425781 204.605469 220.648438 C 204.621094 221.875 204.5625 223.464844 203.566406 224.800781 C 201.09375 228.121094 198.164062 228.71875 194.601562 230.28125 C 195.203125 234.019531 195.691406 236.6875 194.824219 240.421875 C 194.472656 241.941406 193.6875 245.390625 191.8125 246.277344 C 189.933594 247.160156 186.3125 246.734375 184.023438 247.097656 C 181.730469 247.460938 180.449219 247.804688 178.664062 248.160156 C 177.578125 249.730469 175.964844 251.460938 175.410156 252.867188 C 174.855469 254.273438 175.023438 254.777344 175.488281 256.210938 C 175.953125 257.648438 177.539062 259.738281 177.988281 261.417969 C 178.4375 263.101562 178.523438 264.910156 178.105469 266.597656 C 177.683594 268.28125 176.964844 269.507812 175.527344 271.003906 C 174.09375 272.5 171.265625 273.675781 169.859375 274.890625 C 168.449219 276.101562 167.046875 276.25 167.429688 278.257812 C 167.960938 281.015625 171.992188 285.488281 174.90625 286.554688 C 176.65625 287.191406 179 286.992188 181.125 286.097656 C 180.980469 288.453125 178.941406 290.039062 177.609375 291.605469 C 181.214844 290.574219 184.714844 288.597656 187.136719 285.980469 C 186.382812 288.253906 183.800781 291.902344 179.9375 295.109375 C 176.078125 298.3125 176.101562 297.65625 174.179688 298.933594 C 177.683594 299.636719 180.941406 299.445312 183.65625 298.957031 C 182.167969 299.777344 179.730469 300.933594 176.5 301.269531 C 173.269531 301.609375 171.277344 301.371094 168.363281 300.664062 C 165.453125 299.957031 162.796875 297.308594 159.265625 295.484375 C 159.609375 296.792969 159.855469 298.367188 161.339844 299.714844 C 162.824219 301.058594 165.066406 301.742188 167.453125 302.90625 C 164.417969 302.5625 161.222656 302.457031 158.238281 301.800781 C 156.03125 301.3125 154.542969 300.796875 152.925781 299.996094 C 151.3125 299.195312 150.0625 298.027344 148.632812 297.042969 C 149.320312 298.351562 149.523438 299.894531 150.6875 300.972656 C 151.855469 302.054688 153.753906 302.457031 155.289062 303.199219 C 153.6875 303.164062 152.148438 303.511719 150.488281 303.09375 C 148.828125 302.675781 147.269531 302.019531 145.542969 300.75 C 143.820312 299.476562 142.039062 297.910156 140.566406 296.3125 C 139.09375 294.710938 137.273438 292.636719 136.726562 291.160156 C 136.171875 289.683594 137.054688 288.652344 137.222656 287.398438 C 136.203125 288.066406 134.953125 288.433594 134.171875 289.402344 C 133.390625 290.371094 132.699219 291.257812 133.042969 292.949219 C 133.390625 294.636719 134.949219 296.703125 136.054688 298.582031 C 132.761719 295.890625 130.925781 294.855469 130.140625 291.609375 C 129.40625 288.570312 131.304688 285.8125 132.746094 283.515625 C 133.460938 282.375 134.535156 281.3125 135.203125 280.210938 C 133.714844 278.753906 132.015625 277.503906 130.742188 275.847656 C 129.46875 274.1875 128.933594 271.945312 127.632812 270.359375 C 126.332031 268.769531 124.582031 267.765625 123.058594 266.472656 C 124.398438 269.347656 126.601562 272.875 127.078125 275.101562 C 127.554688 277.328125 126.542969 278.691406 125.753906 279.894531 C 124.960938 281.097656 123.6875 281.363281 122.476562 282.101562 C 121.265625 282.839844 119.382812 282.257812 118.664062 283.355469 C 117.941406 284.453125 117.75 286.101562 118.4375 287.1875 L 121.261719 291.644531 C 120.222656 291.121094 118.429688 289.59375 117.621094 288.507812 C 116.8125 287.425781 115.570312 286.421875 115.398438 284.957031 C 115.230469 283.492188 115.148438 282.21875 116.097656 280.914062 C 117.046875 279.609375 119.648438 279.171875 120.8125 278.167969 C 121.976562 277.164062 122.628906 276.511719 122.5625 275.214844 C 122.496094 273.917969 121.230469 272.988281 120.140625 272.171875 C 116.8125 269.679688 112.546875 267.378906 109.722656 264.375 C 108.128906 262.675781 107.363281 261.304688 107.042969 260.132812 C 106.722656 258.960938 107.058594 258.046875 107.851562 256.609375 C 108.644531 255.167969 111.363281 253.242188 111.695312 251.675781 C 112.023438 250.113281 110.652344 249.777344 109.414062 249.222656 C 108.171875 248.671875 105.820312 249.507812 104.671875 248.546875 C 103.523438 247.585938 105.007812 245.566406 103.714844 244.460938 C 102.417969 243.355469 99.453125 243.972656 97.925781 242.78125 C 96.394531 241.589844 95.761719 240.113281 95.234375 238.386719 C 94.707031 236.660156 94.648438 234.765625 95.003906 233.515625 C 95.363281 232.265625 96.4375 232.046875 97.082031 231.398438 C 97.730469 230.75 98.292969 230.210938 97.429688 229.246094 C 96.566406 228.277344 93.738281 229.300781 92.113281 228.058594 C 90.488281 226.816406 91.484375 223.84375 90.335938 222.59375 C 89.183594 221.339844 87.121094 221.828125 86.035156 221.429688 C 84.945312 221.027344 84.519531 222.441406 83.851562 220.207031 C 83.183594 217.972656 83.167969 211.316406 82.269531 208.832031 C 81.371094 206.347656 79.605469 208.664062 78.789062 206.191406 C 77.96875 203.722656 78.746094 199.773438 78.378906 196.046875 L 76.707031 185.898438 C 70.875 189.8125 67.027344 191.042969 60.765625 192.148438 C 60.242188 207.46875 58.804688 216.488281 64.003906 233.488281 C 69.207031 250.484375 79.730469 260.503906 93.933594 274.890625 C 75.195312 260.855469 66.246094 249.445312 60.648438 234.828125 C 55.050781 220.210938 56.125 207.984375 56.6875 193.90625 Z M 156.257812 187.75 C 157.699219 187.8125 159.449219 188.179688 160.460938 188.835938 C 161.476562 189.496094 162.550781 190.03125 163.46875 190.964844 C 165.761719 193.300781 167.480469 196.117188 168.242188 199.351562 C 168.726562 201.414062 168.796875 204.058594 168.972656 206.480469 C 168.28125 204.242188 167.8125 201.910156 166.824219 199.902344 C 165.265625 196.742188 162.617188 193.65625 159.328125 192.234375 C 158.246094 191.765625 157.519531 191.851562 156.921875 191.933594 C 157.191406 192.382812 157.636719 192.757812 157.65625 193.414062 C 157.675781 194.070312 157.53125 195.355469 156.414062 195.898438 C 154.621094 196.769531 152.625 196.15625 151.238281 194.929688 C 149.839844 193.695312 149.363281 191.605469 150.09375 189.808594 C 150.964844 187.667969 154.289062 187.664062 156.257812 187.75 Z M 138.179688 184.703125 C 138.363281 181.023438 139.691406 177.921875 142.988281 176.117188 C 144.695312 175.183594 147.320312 173.976562 149.738281 173.695312 C 152.054688 173.421875 157.699219 173.621094 161.09375 175.167969 C 163.699219 176.359375 165.472656 178.210938 167.761719 179.5625 C 170.050781 180.917969 171.675781 181.824219 173.855469 183.34375 C 177.199219 185.671875 179.160156 188.238281 181.480469 189.773438 C 182.59375 190.515625 184.164062 190.40625 185.644531 190.855469 C 184.492188 191.199219 182.988281 191.574219 181.746094 191.179688 C 180.199219 190.683594 178.03125 189.269531 176.832031 188.253906 C 174.710938 186.460938 173.609375 185.585938 171.292969 184.234375 C 169.910156 183.429688 167.632812 182.480469 166.113281 181.488281 C 164.589844 180.496094 161.953125 178.324219 160.492188 177.585938 C 158.632812 176.652344 155.289062 176.132812 153.222656 176.191406 C 150.371094 176.277344 146.246094 176.746094 144.042969 178.746094 C 141.851562 180.734375 141.019531 182.484375 141.515625 185.0625 C 142.339844 184.113281 142.890625 182.921875 143.714844 182.214844 C 145.425781 180.753906 147.390625 180.683594 149.523438 180.960938 C 151.914062 181.269531 153.121094 182.652344 153.910156 184.925781 C 153.378906 184.535156 152.402344 183.675781 151.628906 183.410156 C 149.816406 182.785156 148.445312 182.976562 146.75 183.886719 C 144.742188 184.960938 145.289062 186.554688 145 188.324219 C 144.867188 189.140625 144.558594 189.796875 144.339844 190.535156 C 143.585938 190.332031 142.890625 190.019531 142.320312 189.457031 C 142.34375 190.28125 142.222656 191.003906 142.390625 191.933594 C 142.558594 192.863281 143.011719 193.96875 143.324219 194.984375 C 141.929688 193.589844 140.5 192.289062 139.597656 190.488281 C 138.695312 188.683594 138.085938 186.683594 138.179688 184.703125 Z M 140.597656 157.921875 C 141.625 156.394531 141.925781 154.054688 142.5625 152.148438 C 142.308594 154.5625 142.792969 157.210938 141.617188 158.960938 C 140.441406 160.707031 138.371094 160.398438 136.660156 160.90625 C 137.992188 159.890625 139.566406 159.449219 140.597656 157.921875 Z M 115.96875 193.675781 C 117.289062 192.605469 120.851562 193.460938 123.519531 193.652344 C 121.605469 194.140625 119.6875 194.632812 117.769531 195.125 C 117.59375 195.773438 117.671875 196.523438 117.234375 197.078125 C 116.796875 197.632812 115.964844 197.839844 115.332031 198.21875 C 115.394531 196.507812 114.648438 194.742188 115.96875 193.675781 Z M 134.753906 119.421875 C 136.34375 120.277344 138.367188 121.410156 139.769531 121.445312 C 141.175781 121.480469 141.542969 120.527344 142.371094 119.976562 C 143.671875 124.214844 145.164062 128.875 147.378906 132.722656 C 148.308594 134.335938 148.898438 133.585938 149.605469 135.207031 C 150.308594 136.828125 150.621094 140.121094 151.292969 142.191406 C 151.960938 144.261719 152.832031 145.785156 153.605469 147.582031 C 151.644531 144.808594 149.117188 141.269531 148.023438 138.960938 C 146.933594 136.652344 147.632812 136.453125 146.75 134.253906 C 145.867188 132.054688 144.082031 128.628906 142.75 125.816406 C 141.792969 125.945312 140.609375 126.117188 139.882812 125.894531 C 139.160156 125.667969 139.304688 124.898438 138.648438 124.398438 C 137.992188 123.898438 136.886719 124.09375 135.964844 123.296875 C 135.046875 122.5 134.835938 120.867188 134.753906 119.421875 Z M 126.183594 140.347656 C 127.683594 140.214844 129.542969 140.617188 130.945312 140.535156 C 132.347656 140.457031 133.347656 140.09375 134.550781 139.871094 C 134.328125 137.757812 134.539062 133.878906 132.589844 132.46875 C 131.328125 131.558594 126.15625 132.242188 124.773438 132.542969 C 121.664062 133.210938 118.042969 135.066406 115.035156 136.226562 C 117.917969 134.214844 120.40625 132.347656 123.863281 131.308594 C 125.941406 130.683594 130.792969 129.875 132.9375 130.453125 C 133.914062 130.714844 134.113281 131.121094 134.707031 131.953125 C 136.75 134.800781 136.742188 137.261719 137.273438 140.582031 C 137.792969 141.394531 138.347656 141.933594 138.769531 142.773438 C 139.191406 143.609375 139.429688 144.925781 139.546875 146 C 139.011719 145.226562 139.339844 144.253906 137.859375 143.679688 C 136.378906 143.101562 134.113281 143.640625 132.117188 143.847656 C 133.570312 144.898438 134.292969 145.910156 134.347656 148.125 C 134.414062 150.730469 132.210938 152.605469 129.90625 152.78125 C 126.710938 153.03125 125.0625 152.328125 123.769531 149.597656 C 123.203125 148.402344 123.613281 146.960938 123.566406 145.796875 C 119.726562 146.0625 119.789062 145.9375 116.980469 148.277344 C 118.507812 150.511719 119.46875 151.796875 121.988281 153.132812 C 123.402344 153.886719 125.003906 154.613281 126.757812 154.914062 C 128.511719 155.210938 131.382812 155.5 133.226562 155.214844 C 135.066406 154.933594 136.109375 154.40625 137.476562 153.144531 C 138.839844 151.882812 138.964844 150.074219 139.5 148.648438 C 139.378906 150.023438 139.21875 151.773438 138.710938 152.769531 C 137.15625 155.804688 134.46875 156.703125 131.261719 156.710938 C 128.183594 156.722656 124.375 156.011719 121.511719 154.824219 C 119.222656 153.875 115.425781 151.1875 114.523438 148.855469 C 113.910156 147.257812 114.394531 145.300781 114.332031 143.527344 C 117.503906 141.417969 118.285156 141.9375 122.039062 141.320312 C 123.609375 141.058594 124.6875 140.476562 126.183594 140.347656 Z M 107.714844 126.066406 C 107.804688 124.804688 107.945312 124.832031 108.058594 124.214844 C 105.167969 123.441406 104.011719 125.316406 102.316406 128.792969 C 101.683594 130.097656 102.3125 130.871094 101.632812 131.730469 C 100.953125 132.585938 99.859375 132.464844 98.753906 133.289062 C 97.652344 134.113281 96.558594 135.6875 95.527344 136.539062 C 93.410156 138.289062 90.550781 139.355469 88.097656 140.53125 C 89.773438 139.296875 93.027344 137.421875 94.078125 135.625 C 94.636719 134.671875 94.554688 132.875 95.421875 132.019531 C 96.289062 131.164062 96.59375 130.570312 97.714844 130.351562 C 98.839844 130.132812 98.386719 128.835938 98.75 127.800781 C 99.109375 126.769531 99.832031 126.035156 100.597656 125.003906 C 101.363281 123.972656 102.332031 122.421875 103.84375 121.859375 C 105.359375 121.296875 107.71875 121.902344 108.867188 121.582031 C 110.011719 121.257812 109.351562 120.421875 110.183594 119.921875 C 111.019531 119.421875 112.640625 119.644531 113.75 119.109375 C 115.722656 118.160156 116.667969 116.578125 117.855469 114.882812 C 118.027344 118.53125 117.984375 121.15625 116.671875 124.589844 C 115.195312 128.453125 113.699219 130.726562 109.507812 133.105469 C 108.066406 133.921875 106.628906 134.207031 105.429688 134.636719 C 106.128906 133.683594 107.128906 133.269531 107.523438 131.78125 C 107.921875 130.289062 107.625 127.332031 107.714844 126.066406 Z M 175.378906 143.855469 C 173.386719 143.984375 172.914062 143.722656 171.320312 144.847656 C 172.183594 146.191406 173.046875 147.535156 173.910156 148.882812 C 173.835938 146.226562 174.09375 145.695312 175.378906 143.855469 Z M 170.160156 141.925781 C 172.917969 140.75 175.324219 139.800781 178.324219 139.613281 C 179.527344 139.539062 181.398438 139.722656 182.613281 139.777344 C 183.648438 138.253906 184.96875 137.054688 185.453125 135.3125 C 185.773438 134.160156 185.613281 128.804688 185.046875 127.414062 C 183.394531 123.367188 181.792969 123.199219 179.519531 120.878906 C 177.871094 119.199219 177.804688 116.640625 177.3125 113.773438 C 177.128906 112.71875 176.613281 111.386719 176.371094 110.296875 C 173.398438 109.796875 170.207031 109.632812 166.789062 109.804688 C 168.445312 108.214844 170.046875 106.761719 170.523438 104.378906 C 170.996094 101.992188 170.609375 99.058594 169.253906 96.917969 C 167.898438 94.78125 165.730469 92.917969 163.742188 91.175781 C 161.753906 89.429688 158.902344 87.992188 157.015625 86.566406 C 159.46875 85.6875 161.972656 84.398438 164.371094 83.933594 C 170.628906 82.722656 176.019531 84.578125 182.054688 88.222656 C 185.5625 90.34375 188.464844 92.359375 192.132812 96.199219 C 195.800781 100.039062 200.347656 107.078125 203.898438 111.253906 C 207.449219 115.429688 210.316406 118.734375 213.410156 121.222656 C 216.507812 123.714844 219.3125 124.421875 222.261719 126.023438 L 226.859375 130.90625 L 230.582031 126.300781 L 236.570312 126.976562 L 237.804688 120.257812 L 243.300781 118.753906 L 242.40625 109.695312 L 246.355469 106.894531 L 243.386719 101.257812 L 246.402344 95.097656 L 242.46875 88.058594 L 243.988281 81.28125 L 239.433594 77.402344 L 238.839844 70.199219 L 232.488281 67.777344 L 229.9375 61.511719 L 222.796875 61.429688 L 219.292969 56.78125 L 214.484375 57.117188 L 209.125 56.53125 L 206.09375 54.296875 L 201.695312 57.214844 L 196.371094 54.441406 L 185.789062 58.457031 L 192.6875 52.457031 L 199.832031 51.316406 L 205.308594 49.921875 L 212.703125 52.351562 L 219.210938 50.703125 L 225.484375 54.410156 L 232.125 54.042969 L 235.386719 59.894531 L 242 60.65625 L 245.578125 67.164062 L 249.734375 69.433594 L 250.839844 77.769531 L 254.542969 81.28125 L 252.914062 88.574219 L 257.277344 94.097656 L 253.1875 100.011719 L 257.5625 103.710938 L 251.96875 108.667969 L 257.632812 114.5625 L 250.792969 116.769531 L 255.246094 123.09375 L 249.660156 124.058594 L 253.324219 131.011719 L 247.027344 130.929688 L 250.199219 136.136719 L 243.292969 135.308594 L 244.945312 142.800781 L 239.726562 138.210938 L 237.9375 147.292969 L 234.335938 140.769531 L 232.386719 148.90625 L 227.941406 142.90625 L 228.0625 151.4375 L 223.148438 143.769531 C 224.183594 148.117188 223.976562 152.882812 226.835938 156.984375 C 235.691406 155.789062 241.480469 153.558594 248.265625 147.027344 C 254.445312 141.082031 261.832031 128.6875 263.832031 120.824219 C 266.117188 111.851562 266.1875 95.347656 263.9375 86.214844 C 261.773438 77.417969 258.960938 73.21875 253.9375 66.042969 C 249.136719 60.941406 244.414062 55.554688 238.316406 51.917969 C 229.371094 46.582031 217.898438 45.140625 207.699219 45.28125 C 202.054688 45.355469 198.273438 46.441406 194.894531 47.667969 C 188.992188 49.816406 184.273438 54.496094 178.269531 56.808594 C 176.3125 57.5625 174.746094 57.585938 173.203125 56.765625 C 174.710938 59.785156 176.355469 61.136719 180.117188 62.234375 C 182.839844 63.03125 189.339844 62.527344 193.8125 62.117188 C 198.613281 61.671875 201.117188 60.246094 207.652344 60.335938 C 214.03125 60.421875 219.089844 62.847656 221.855469 64.425781 C 227.558594 67.6875 231.652344 71.304688 235.207031 77.035156 C 237.15625 80.183594 238.523438 83.734375 239.488281 87.359375 C 240.453125 90.980469 240.875 95.039062 240.933594 98.585938 C 240.996094 102.136719 240.726562 105.300781 239.859375 108.492188 C 237.828125 115.96875 233.347656 123.570312 224.152344 122.398438 C 218.519531 121.679688 210.035156 111.113281 207.191406 107.238281 C 201.457031 99.417969 195.558594 90.761719 188.351562 84.25 C 183.957031 80.277344 177.941406 77.546875 172.035156 77.003906 C 160.953125 75.992188 157.664062 78.097656 149.324219 84.96875 C 151.019531 85.511719 152.675781 85.808594 154.417969 86.59375 C 158.277344 88.332031 161.808594 90.578125 164.886719 93.460938 C 168.113281 96.484375 169.558594 98.394531 169.675781 102.722656 C 169.75 105.59375 167.386719 107.898438 165.21875 109.96875 C 163.894531 111.238281 162.140625 112.402344 161.066406 113.386719 C 159.640625 114.691406 157.878906 116.125 159.667969 118.207031 C 160.339844 118.988281 161.507812 119.578125 162.492188 120.308594 C 164.054688 121.46875 163.339844 125.777344 161.28125 126.921875 C 158.644531 128.382812 155.496094 128.21875 153.324219 126.265625 C 156.066406 125.851562 157.808594 125.488281 157.738281 123.246094 C 157.695312 121.945312 156.042969 120.867188 154.421875 120.128906 C 150.507812 118.34375 147.554688 118.605469 143.660156 115.804688 C 139.726562 112.972656 139.636719 111.425781 138.574219 106.980469 C 136.679688 107.179688 134.933594 107.222656 132.394531 108.0625 C 129.859375 108.902344 127.058594 110.898438 124.753906 111.394531 C 118.957031 112.640625 117.800781 112.269531 114.628906 111.449219 C 109.039062 110.003906 101.765625 112.480469 94.539062 114.789062 C 93.339844 115.175781 88.476562 114.804688 85.207031 115.949219 C 80.152344 117.722656 73.0625 122.015625 68.96875 125.464844 C 62.765625 130.6875 54.609375 146.324219 50.003906 164.269531 C 49.519531 169.726562 51.070312 173.402344 47.632812 176.066406 C 44.195312 178.730469 44.292969 185.558594 43.125 187.472656 C 41.960938 189.386719 40.613281 188.539062 38.101562 191.230469 C 35.59375 193.917969 34.316406 193.46875 34.378906 198.550781 C 36.542969 197.132812 39.695312 195.480469 42.460938 195.378906 C 44.914062 195.289062 44.941406 198.515625 51.230469 192.296875 C 54.597656 188.972656 61.058594 188.871094 65.546875 187.402344 C 70.03125 185.933594 78.113281 182.910156 86.210938 173.863281 C 94.304688 164.816406 98.179688 155.289062 99.75 141.515625 C 100 143.957031 100.433594 146.710938 99.386719 153.449219 C 98.339844 160.183594 96.085938 167.75 100.835938 176.808594 L 103.792969 182.457031 C 102.03125 180.050781 98.59375 176.132812 97.558594 173.339844 L 95.167969 166.894531 C 89.824219 175.285156 88.59375 176.785156 81.167969 182.796875 C 80.875 186.527344 80.800781 190.417969 82.019531 193.984375 C 83.238281 197.550781 81.296875 201.664062 82.222656 204.015625 C 83.152344 206.367188 85.296875 205.027344 85.996094 207.40625 C 86.695312 209.785156 85.628906 214.488281 86.714844 216.808594 C 87.804688 219.128906 90.46875 217.71875 91.761719 218.46875 C 93.050781 219.21875 93.472656 220.246094 94.164062 221.230469 C 94.855469 222.214844 93.894531 224.542969 95.300781 225.300781 C 96.703125 226.058594 98.894531 225.417969 100.359375 226.140625 C 101.820312 226.867188 102.042969 228.613281 101.691406 230.175781 C 101.339844 231.738281 99.777344 232.457031 99.09375 234.046875 C 98.40625 235.636719 98.484375 236.742188 99.308594 238.203125 C 100.132812 239.664062 101.957031 240.46875 103.773438 241.203125 C 105.589844 241.941406 108.144531 241.527344 110.023438 242.546875 C 111.898438 243.566406 113.582031 245.597656 114.574219 247.074219 C 115.566406 248.546875 115.839844 249.589844 115.789062 251.140625 C 115.738281 252.691406 115.109375 254.476562 114.28125 255.976562 C 113.453125 257.476562 111.625 259.296875 114.476562 262.160156 C 117.332031 265.019531 117.226562 263.789062 118.859375 265.644531 C 118.683594 262.433594 117.355469 259.816406 118.324219 257.402344 C 119.296875 254.984375 122.210938 254.5625 123.746094 253.476562 C 125.28125 252.386719 126.167969 250.894531 127.378906 249.605469 C 127.359375 251.265625 127.539062 253.050781 127.347656 254.300781 C 126.964844 256.84375 126.214844 259.101562 130.003906 259.507812 C 131.710938 259.691406 133.332031 258.585938 135.128906 257.921875 C 134.1875 259.605469 132.550781 260.960938 132.304688 262.976562 C 132.058594 264.992188 132.351562 267.207031 133.75 269.207031 C 135.144531 271.207031 137.558594 272.691406 139.324219 273.867188 C 141.089844 275.042969 142.035156 275.136719 143.394531 275.769531 C 143.460938 277.753906 143.070312 279.851562 143.296875 281.71875 C 143.523438 283.582031 144.109375 285.234375 145.191406 286.777344 C 146.269531 288.324219 148.003906 289.207031 149.632812 290.347656 C 148.738281 288.265625 146.925781 286.289062 146.949219 284.101562 C 146.972656 281.914062 147.628906 280.359375 149.765625 278.417969 C 151.902344 276.476562 156.902344 274.792969 159.257812 272.902344 C 161.617188 271.011719 162.378906 269.855469 163.222656 268.023438 C 164.070312 266.1875 163.835938 263.234375 163.992188 261.585938 C 164.765625 263.894531 164.878906 264.613281 165.128906 267.027344 C 165.382812 269.445312 163.722656 272.835938 163.019531 274.625 C 165.933594 273.214844 167.785156 270.964844 168.71875 268.765625 C 169.34375 269.136719 169.03125 270.152344 169.261719 272.109375 C 170.300781 271.078125 171.480469 270.28125 172.527344 269.304688 C 173.574219 268.332031 174.722656 267.472656 175.242188 266.113281 C 175.757812 264.75 175.546875 263.304688 175.160156 261.722656 C 174.773438 260.140625 173.007812 258.304688 172.054688 256.574219 C 171.101562 254.847656 172.222656 253.148438 172.160156 251.066406 C 170.253906 250.738281 168.636719 249.769531 166.445312 250.082031 C 164.257812 250.398438 161.75 252.855469 159.511719 252.882812 C 157.273438 252.910156 156.015625 250.816406 154.179688 250.238281 C 152.34375 249.664062 150.488281 249.726562 148.644531 249.46875 C 150.980469 247.230469 160.050781 246.164062 166.253906 245.152344 C 171.714844 244.261719 177.132812 243.75 182.664062 243.671875 C 185.132812 243.636719 188.308594 244.453125 190.023438 243.957031 C 191.742188 243.46875 191.375 242.296875 191.882812 241.023438 C 193.308594 237.464844 192.605469 234.292969 191.832031 230.707031 C 186.867188 230.125 181.691406 229.410156 176.6875 229.796875 C 171.796875 230.171875 166.003906 232.496094 160.957031 232.652344 C 156.570312 232.789062 150.078125 231.8125 146.308594 229.519531 C 141.707031 226.714844 138.144531 220.6875 136.882812 218.753906 C 134.824219 215.605469 132.226562 209.421875 130.644531 206.597656 C 129.066406 203.773438 128.71875 202.980469 127.402344 201.800781 C 126.089844 200.621094 124.289062 200.53125 122.730469 199.894531 C 124.527344 200.078125 126.484375 199.511719 128.117188 200.445312 C 130.566406 201.851562 133.308594 207.675781 134.832031 210.207031 C 136.449219 204.796875 136.070312 202.667969 140.742188 199.617188 C 136.976562 203.835938 136.882812 207.035156 135.964844 212 C 139.097656 217.140625 143.453125 225.328125 149.148438 227.597656 C 151.207031 228.417969 154.742188 228.933594 156.964844 229.210938 C 163.890625 230.066406 170.566406 227.871094 177.367188 226.195312 C 182.339844 224.964844 187.382812 225.460938 193.429688 225.816406 C 195.480469 225.9375 200.320312 224.703125 201.324219 222.625 C 201.863281 221.507812 201.824219 220.160156 201.046875 218.96875 C 200.269531 217.773438 198.195312 217.199219 197.085938 216.125 C 195.972656 215.050781 195.335938 213.773438 194.460938 212.597656 C 189.84375 213.484375 186.042969 213.824219 182.617188 213.917969 C 185.074219 212.90625 187.433594 212.328125 189.992188 211.328125 C 192.550781 210.328125 195.457031 208.683594 197.523438 207.324219 C 199.585938 205.960938 200.90625 205.167969 202.398438 203.582031 C 203.890625 201.996094 205.808594 200.363281 206.910156 198.421875 C 208.011719 196.480469 208.179688 194.3125 208.242188 191.910156 C 208.304688 189.511719 208.199219 186.144531 207.273438 184.210938 C 206.347656 182.277344 204.566406 181.691406 203.132812 181.230469 C 201.699219 180.773438 200.71875 181.933594 199.226562 182.089844 C 197.734375 182.246094 196.339844 183.183594 194.183594 182.171875 C 192.027344 181.15625 189.472656 179.09375 187.289062 176.027344 C 185.109375 172.964844 183.550781 167.957031 181.328125 164.105469 C 177.5 157.464844 172.726562 151.261719 168.160156 145.105469 C 167.785156 143.589844 167.21875 141.492188 167.03125 139.433594 C 166.703125 135.847656 166.640625 132.121094 167.753906 128.625 C 168.609375 125.945312 169.851562 123.117188 172.65625 122.015625 C 173.777344 121.578125 175.199219 121.402344 176.203125 121.773438 C 177.207031 122.144531 178.191406 123.277344 177.796875 124.585938 C 177.363281 126.027344 176.367188 126.066406 175.6875 126.792969 C 174.539062 128.023438 174.078125 128.929688 173.644531 130.464844 C 174.886719 130.445312 176.566406 130.351562 177.585938 130.617188 C 178.917969 130.96875 180.160156 131.851562 180.835938 133.738281 C 179.246094 132.328125 178.457031 131.683594 176.472656 131.632812 C 175.5625 131.609375 174.457031 131.933594 173.453125 132.085938 C 173.078125 133.308594 172.855469 134.808594 172.324219 135.753906 C 171.792969 136.699219 170.761719 136.472656 170.375 137.578125 C 169.984375 138.679688 169.964844 140.476562 170.160156 141.925781 Z M 184.046875 140.269531 C 184.65625 140.511719 184.886719 140.5625 185.65625 141.148438 C 186.429688 141.734375 187.492188 142.320312 188.105469 143.722656 C 188.714844 145.125 188.6875 147.292969 188.558594 148.175781 C 188.019531 148.019531 187.289062 148.125 186.734375 147.652344 C 186.179688 147.175781 185.847656 146.097656 185.136719 145.636719 C 184.421875 145.175781 183.828125 145.277344 183.042969 145.179688 C 183.445312 146.328125 183.644531 147.480469 183.457031 148.523438 C 183.046875 150.800781 181.707031 151.953125 179.539062 152.226562 C 178.59375 152.34375 177.089844 152.03125 176.265625 151.882812 C 176.648438 152.734375 177.296875 153.480469 177.679688 154.335938 C 179.511719 154.070312 180.871094 154.105469 181.855469 153.644531 C 182.839844 153.183594 183.898438 152.152344 185.164062 151.714844 C 186.425781 151.277344 187.554688 151.285156 188.941406 151.070312 C 187.851562 152.007812 187.132812 152.949219 186.046875 153.886719 C 186.84375 156.207031 187.644531 158.527344 188.441406 160.851562 C 190.132812 161.910156 191.722656 162.46875 193.855469 163.773438 C 195.992188 165.082031 198.550781 167.421875 201.328125 168.699219 C 204.109375 169.972656 205.765625 170.667969 208.667969 171.214844 C 211.570312 171.761719 213.882812 174.113281 216.738281 174.496094 C 219.597656 174.878906 224.933594 174.957031 227.136719 174.742188 C 229.636719 174.496094 232.886719 173.207031 233.179688 170.46875 C 231.082031 170.984375 227.878906 170.519531 226.261719 166.574219 C 225.546875 164.824219 225.898438 161.605469 224.796875 159.53125 C 223.699219 157.460938 222.167969 156.796875 220.339844 154.246094 C 218.511719 151.691406 215.519531 147.667969 213.839844 144.25 C 212.160156 140.828125 211.765625 136.957031 210.347656 133.894531 C 208.925781 130.832031 206.785156 128.355469 205.125 125.996094 C 201.5 120.835938 198.574219 117.308594 192.605469 114.707031 C 189.730469 113.453125 186.460938 113.121094 183.390625 112.328125 C 182.140625 112.886719 180.425781 113.503906 180.121094 114.964844 C 179.820312 116.425781 180.402344 118.585938 181.464844 119.683594 C 183.238281 121.515625 185.871094 123.5 186.902344 126.414062 C 187.570312 128.285156 187.761719 134.554688 187.1875 136.257812 C 186.589844 138.023438 185.199219 139.09375 184.046875 140.269531 Z M 184.625 155.113281 C 184.070312 155.59375 183.648438 156.082031 182.753906 156.480469 C 181.863281 156.878906 180.644531 156.980469 179.460938 157.277344 C 181.121094 159.859375 182.863281 162.46875 184.453125 165.183594 C 186.042969 167.894531 187.421875 170.867188 188.941406 173.710938 C 188.867188 172.082031 188.964844 170.34375 188.726562 168.824219 C 188.488281 167.300781 187.800781 165.96875 187.117188 163.683594 C 186.433594 161.398438 185.59375 158.289062 184.625 155.113281 Z M 139.984375 98.339844 C 139.75 100.882812 140.179688 104.851562 140.707031 107.339844 C 141.335938 110.316406 141.945312 111.859375 144.359375 113.652344 C 148.785156 116.9375 151.609375 116.382812 155.015625 118.289062 C 156.632812 119.195312 158.6875 120.710938 159.285156 122.316406 C 159.882812 123.921875 158.890625 125.667969 157.660156 126.351562 C 159.808594 126.671875 162.21875 124.25 161.210938 121.765625 C 160.71875 120.542969 158.359375 119.996094 157.636719 118.761719 C 156.917969 117.527344 156.917969 116.257812 157.257812 115.003906 C 157.871094 112.746094 162.34375 110.691406 163.921875 108.90625 C 166.355469 106.15625 167.289062 103.859375 165.910156 100.320312 C 163.976562 95.347656 156.507812 91.359375 152.035156 89.40625 C 149.988281 88.511719 148.839844 88.449219 147.242188 87.972656 C 150.511719 89.886719 153.960938 91.414062 155.613281 95.695312 C 156.996094 99.269531 155.800781 100.617188 155.84375 103.734375 C 155.867188 105.175781 157.769531 105.898438 158.613281 106.8125 C 159.347656 107.605469 159.289062 108.191406 158.699219 109.289062 C 158.636719 108.300781 158.214844 107.5625 157.457031 107.027344 C 156.203125 106.140625 154.855469 106.332031 154.1875 104.511719 C 153.175781 101.746094 155.183594 99.125 152.925781 96.023438 C 151.238281 93.699219 148.992188 91.097656 145.964844 91.03125 C 144.53125 90.996094 143.453125 91.214844 141.921875 91.667969 L 139.878906 89.210938 L 139.832031 89.179688 C 135.679688 85.390625 132.839844 82.265625 127.015625 79.664062 C 121.191406 77.058594 118.320312 76.664062 111.640625 76.8125 C 104.960938 76.960938 98.332031 77.519531 90.597656 84.191406 C 82.863281 90.859375 62.925781 116.398438 58.089844 119.628906 C 53.257812 122.863281 52.183594 123.957031 46.144531 123.960938 C 40.101562 123.960938 30.675781 115.417969 30.304688 104.742188 C 29.9375 94.0625 29.789062 90.269531 37.210938 77.40625 C 44.636719 64.542969 58.082031 60.59375 68.0625 59.261719 C 78.042969 57.925781 84.039062 61.441406 91.417969 61.457031 C 98.800781 61.472656 106.09375 60.199219 108.246094 54.332031 C 107.195312 54.957031 105.78125 55.664062 101.816406 55.457031 C 97.851562 55.25 92.351562 50.65625 86.164062 47.582031 C 79.976562 44.503906 73.089844 44.144531 64.261719 43.976562 C 55.429688 43.8125 44.410156 44.484375 33.496094 50.378906 C 22.578125 56.269531 15.125 62.519531 8.796875 74.050781 C 2.464844 85.585938 1.515625 95 2.539062 108.960938 C 3.558594 122.925781 7.867188 133.308594 16.160156 143.527344 C 24.453125 153.746094 32.742188 158.746094 47.6875 160.605469 L 50.832031 146.730469 L 45.214844 154.789062 L 45.355469 145.828125 L 40.273438 152.128906 L 38.046875 143.582031 L 33.929688 150.4375 L 31.886719 140.890625 L 25.921875 145.714844 L 27.808594 137.839844 L 19.917969 138.714844 L 23.542969 133.238281 L 16.347656 133.328125 L 20.535156 126.019531 L 14.148438 125.007812 L 19.238281 118.359375 L 11.421875 116.042969 L 17.894531 109.847656 L 11.503906 104.640625 L 16.503906 100.753906 L 11.828125 94.535156 L 16.816406 88.734375 L 14.953125 81.070312 L 19.1875 77.378906 L 20.449219 68.621094 L 25.199219 66.238281 L 29.285156 59.402344 L 36.84375 58.597656 L 40.570312 52.449219 L 48.160156 52.835938 L 55.332031 48.9375 L 62.769531 50.671875 L 71.214844 48.121094 L 77.472656 49.585938 L 85.640625 50.785156 L 93.523438 57.089844 L 81.429688 52.867188 L 75.347656 55.785156 L 70.320312 52.714844 L 66.855469 55.066406 L 60.730469 55.679688 L 55.238281 55.324219 L 51.234375 60.210938 L 43.070312 60.296875 L 40.160156 66.882812 L 32.898438 69.425781 L 32.21875 76.996094 L 27.015625 81.070312 L 28.75 88.195312 L 24.253906 95.589844 L 27.703125 102.0625 L 24.308594 107.980469 L 28.824219 110.929688 L 27.800781 120.445312 L 34.078125 122.027344 L 35.492188 129.085938 L 42.335938 128.375 L 46.589844 133.214844 L 51.84375 128.085938 C 61.421875 123.308594 65.367188 120.636719 72.832031 112.566406 C 81.328125 103.375 86.199219 94.882812 97.519531 88.589844 C 105.636719 84.078125 112.257812 82.453125 121.378906 84.027344 C 129.941406 85.507812 132.808594 90.640625 139.113281 96.050781 C 139.78125 94.839844 139.917969 94.519531 141.019531 93.628906 C 140.675781 95.199219 140.125 96.832031 139.984375 98.339844 Z M 139.984375 98.339844 "/>
</g>
</svg>
